
<svg width="350px" height="262px" viewBox="0 0 350 262" version="1.1" xmlns="http://www.w3.org/2000/svg" xmlns:xlink="http://www.w3.org/1999/xlink">
    <defs>
        <linearGradient x1="50.0065807%" y1="99.9877166%" x2="50.0065807%" y2="0.00726250272%" id="linearGradient-1">
            <stop stop-color="#808080" stop-opacity="0.25" offset="0%"></stop>
            <stop stop-color="#808080" stop-opacity="0.12" offset="54%"></stop>
            <stop stop-color="#808080" stop-opacity="0.1" offset="100%"></stop>
        </linearGradient>
    </defs>
    <g id="Page-1" stroke="none" stroke-width="1" fill="none" fill-rule="evenodd">
        <path d="M350,145.286581 C349.985631,170.395354 339.465929,194.236412 321.216369,210.51963 C302.966809,226.802847 278.820607,233.892533 255.148394,229.918174 L125.403715,229.918174 C120.392475,230.638368 115.340159,230.999677 110.281958,230.999585 C60.9911382,230.999585 19.2459229,197.130311 5.12617275,150.402486 C1.71824797,139.112487 -0.0106884533,127.340523 4.97128969e-05,115.499792 C4.97128969e-05,51.7093531 49.3764065,0 110.281958,0 C159.334495,-5.45601364e-14 200.899471,33.5333331 215.2239,79.9252165 C229.99943,66.7584914 248.774283,59.5423483 268.17449,59.5735772 C313.359523,59.5735772 350,97.9476633 350,145.286581 Z" fill="#EB4242" opacity="0.1"></path>
        <path d="M318.442623,212.826245 C300.47838,227.498623 277.487978,233.690966 254.983405,229.918649 L125.145441,229.918649 C120.130598,230.638481 115.07465,230.999609 110.012811,230.999516 C60.6865523,230.999516 18.9113228,197.147281 4.78142077,150.442964 C15.3498049,126.814194 42.509054,110 74.3517756,110 C105.381309,110 131.962767,125.969966 143.078372,148.652179 C148.544425,147.612417 154.089083,147.091185 159.64478,147.094836 C191.80544,147.094836 219.187857,164.251197 229.526959,188.254114 C238.091472,185.538664 246.994063,184.168905 255.943333,184.189671 C282.173225,184.189671 305.226793,195.599531 318.442623,212.826245 Z" fill="#EB4242" opacity="0.1"></path>
        <ellipse id="Oval" fill="#EB4242" opacity="0.1" cx="175.956284" cy="254" rx="155.874317" ry="8"></ellipse>
        <path d="M164.554321,254.229264 C164.692957,253.723207 164.990692,253.279965 165.400035,252.970236 C165.44924,252.935086 165.501521,252.903131 165.553801,252.871176 C165.981338,252.664002 166.442325,252.541542 166.913094,252.510084 C168.67833,252.273617 170.532751,251.918917 171.873592,250.717408 C172.258007,250.369098 172.587067,249.96327 172.943804,249.589396 C173.701284,248.838292 174.516945,248.15321 175.382536,247.54108 C175.553833,247.375148 175.782086,247.287647 176.016053,247.298222 C176.349724,247.024399 176.625125,246.681656 176.824863,246.291639 C177.016199,245.795419 177.10626,245.263315 177.089341,244.729039 C177.26771,239.296687 178.377902,233.710951 177.144697,228.431983 C177.012856,227.836415 177.049162,227.213971 177.249258,226.639307 C177.000157,226.521073 176.751055,226.399644 176.508105,226.268628 C174.420122,225.131025 172.56343,223.584805 171.040179,221.715039 C170.32945,220.920131 169.765485,219.996173 169.376429,218.989277 C168.912055,217.634384 168.979712,216.151672 169.14578,214.726478 C169.488679,212.214291 169.972327,209.725028 170.594257,207.271374 L172.005831,201.199922 C172.313363,199.864202 172.654724,198.493332 173.337446,197.326974 L173.272864,197.326974 C173.318994,196.652723 173.368199,195.978473 173.463534,195.310613 C173.664984,194.094856 173.942349,192.894006 174.293872,191.715674 C174.416885,191.268304 174.51222,190.645181 174.653685,190.044427 C174.398433,187.318664 173.377425,184.672789 173.205207,181.956613 C173.149851,182.033305 173.097571,182.109997 173.039139,182.186689 C172.614745,182.736316 172.030433,183.14534 171.599888,183.678988 C170.794153,184.695158 170.612709,186.069223 170.443566,187.363401 C170.391726,188.038513 170.23057,188.699686 169.966891,189.319048 C169.819108,189.574546 169.688604,189.840414 169.576325,190.114728 C169.397956,190.66755 169.530195,191.268304 169.637831,191.843494 C169.791598,192.661542 169.846953,193.613802 169.281094,194.21136 C168.971746,194.510678 168.571395,194.688155 168.149375,194.713054 C167.318842,194.773861 166.513053,194.404263 165.996648,193.725644 C165.415412,192.942746 165.332378,191.891427 165.356981,190.910408 C165.353491,190.171131 165.469934,189.43653 165.701417,188.737467 C166.021997,188.003646 166.416838,187.307365 166.879266,186.660391 C167.703453,185.337454 168.309291,183.889892 168.988938,182.483871 C169.527308,181.335338 170.153613,180.233607 170.86181,179.189309 C171.246226,178.633292 171.66447,178.099643 172.008906,177.521258 C172.122693,177.329528 172.685477,175.901139 173.211358,174.47275 C172.940729,174.415231 172.660875,174.300192 172.596293,174.038161 C172.570357,173.884353 172.586336,173.726073 172.642423,173.581205 C173.803005,169.456188 174.018904,165.106276 173.272864,160.879087 C173.069893,159.735098 172.796189,158.594304 172.799264,157.434337 C172.80234,156.27437 173.106797,155.053689 173.927908,154.238836 C174.432261,153.737142 175.09038,153.420788 175.613186,152.941462 C176.621892,152.014767 177.021684,150.592769 177.280011,149.231486 C177.359123,148.592743 177.549847,147.974386 177.842795,147.406854 C177.923416,147.280053 178.013931,147.160352 178.113424,147.048958 C177.388495,145.012584 177.019805,142.857934 177.024759,140.686715 C177.025215,139.057244 177.232011,137.434917 177.639824,135.861509 C177.473756,136.289706 177.332292,136.727489 177.181601,137.17486 C178.467086,130.202276 183.501391,125 189.513649,125 L189.679717,125 C196.49771,125 202.057895,131.688184 202.322373,140.063593 C205.074503,141.898774 206.533723,145.241515 206.049665,148.601972 C207.599065,150.212422 208.469614,152.39626 208.469945,154.673424 C208.436096,159.511376 204.634991,163.40523 199.978976,163.371578 C198.548505,163.371474 197.14099,162.997878 195.88572,162.285108 C195.814101,163.005436 195.689702,163.719038 195.513606,164.419703 C195.230676,165.531737 194.79398,166.605426 194.575632,167.733438 C194.357284,168.861449 194.384962,170.101304 194.975424,171.079127 C195.452636,171.835533 195.810789,172.666127 196.036411,173.539663 C196.238081,174.591067 196.301191,175.666086 196.224006,176.735164 C196.196328,177.712988 196.171725,178.687616 196.144047,179.665439 C196.039486,183.50004 195.938001,187.334642 196.685304,191.098942 C197.02359,192.80534 197.87853,194.425459 197.684785,196.157421 C197.588331,196.785806 197.412547,197.398231 197.16198,197.978856 C196.854447,198.816078 196.454655,199.717209 195.673523,200.123038 C195.29205,200.299658 194.879468,200.392145 194.461845,200.394655 C193.948301,200.419995 193.433602,200.396463 192.924183,200.324354 C192.616651,200.279617 192.201482,200.065519 192.309119,199.758751 C192.359518,199.655288 192.43606,199.568023 192.530542,199.506306 C193.341186,198.840878 193.816496,197.828416 193.822178,196.754979 C193.822178,195.240312 192.853451,193.779968 193.151757,192.281278 C193.339352,191.360973 194.003622,190.469429 193.723768,189.574688 C193.108703,187.551936 193.016443,185.382191 192.493638,183.330679 C192.318345,182.662819 192.143051,181.991764 191.964682,181.323904 C191.65715,180.128787 191.349618,178.930474 191.082064,177.722574 C190.464894,174.83703 190.167727,171.887546 190.196371,168.93175 C189.698008,169.883949 189.358015,170.916777 189.19074,171.98665 C189.098481,172.763156 189.147686,173.5844 188.797099,174.277824 C188.446512,174.971248 187.751489,175.479332 187.33632,176.147192 C187.506543,176.552286 187.700657,176.94608 187.917556,177.326332 C188.353382,177.907103 188.751001,178.517765 189.107707,179.154159 C189.415239,179.793259 189.630512,180.451532 189.891914,181.100219 C190.768381,183.279551 192.272215,185.254371 192.490563,187.603064 C192.668932,189.491605 191.980059,191.338605 191.28196,193.092935 C190.871917,194.141059 190.446497,195.184923 190.005701,196.224526 C189.978023,196.291632 189.94727,196.365128 189.913441,196.432234 C189.861161,196.965882 189.793504,197.496336 189.725847,198.029984 L188.597203,198.029984 C188.135904,198.669085 187.622325,199.308185 187.345546,200.052737 C187.16331,200.630334 187.059795,201.231598 187.038014,201.839022 C186.813515,204.714973 186.856569,207.66442 185.807884,210.339055 C185.500352,211.134735 185.192819,211.936806 185.162066,212.745267 C185.128945,213.419498 185.025836,214.088039 184.854534,214.73926 C184.698714,215.443825 184.616232,216.163753 184.608508,216.886637 C184.574662,218.128377 184.60546,219.371111 184.700767,220.609396 C187.161027,222.207146 189.209192,224.514298 191.423425,226.511487 C194.475843,229.25866 197.940363,231.468258 201.67963,233.052677 L201.661178,232.867338 C202.712939,232.81621 203.715495,233.186889 204.668845,233.694973 C205.004055,233.86753 205.33004,234.052869 205.652949,234.235013 C205.830825,234.32156 205.992283,234.440621 206.129624,234.586518 C206.560169,235.107385 206.246486,235.896674 205.917427,236.503819 C204.822611,238.495681 203.727796,240.485413 202.632981,242.473015 C202.380804,242.933167 202.125552,243.396515 201.91643,243.879036 C201.559693,244.700279 201.332119,245.572651 200.932327,246.371526 C200.458831,247.224056 199.888926,248.014697 199.234748,248.726611 C198.521273,249.578745 197.803697,250.421292 197.082021,251.254252 C196.856812,251.558648 196.576913,251.814758 196.257834,252.008391 C195.927511,252.199034 195.522087,252.180504 195.209149,251.960458 C195.091542,251.854168 194.998066,251.722117 194.935445,251.573802 C194.769048,251.214884 194.69287,250.818013 194.714022,250.420227 C194.743509,249.765331 195.02363,249.149833 195.492079,248.710633 C195.799611,248.445407 196.16865,248.228113 196.294738,247.847848 C196.349626,247.63979 196.362195,247.422132 196.331642,247.208748 C196.180951,245.326598 196.02411,243.425274 195.482853,241.623012 C195.07691,240.27451 194.446469,238.887663 194.74785,237.510402 C194.948768,237.446626 195.154526,237.400659 195.362915,237.372995 C195.152172,237.117825 194.928376,236.874616 194.692495,236.644421 C193.60383,235.583514 192.278365,234.813399 190.968277,234.056065 L185.186669,230.70718 C184.920141,232.245281 184.650537,233.780187 184.377858,235.311897 C184.282523,235.84235 184.190264,236.372803 184.098004,236.909647 C183.665408,239.370183 183.232813,241.828589 182.800217,244.284864 C182.682671,244.876817 182.598469,245.475393 182.548041,246.07754 C182.511137,246.671904 182.532664,247.266267 182.548041,247.857435 C182.538054,248.520932 182.57609,249.18427 182.661828,249.841841 C182.729485,250.211019 182.820926,250.57506 182.935532,250.931507 L182.978586,250.931507 C183.097874,251.024685 183.184331,251.156069 183.224612,251.30538 C183.59177,252.184663 183.834171,253.114661 183.944238,254.066293 C184.031838,254.820613 183.881858,255.58412 183.516768,256.24243 C183.442567,256.39031 183.329534,256.5133 183.190783,256.59713 C183.035065,256.663249 182.866069,256.688492 182.698732,256.670627 L175.099606,256.504461 C174.164539,256.457937 173.227363,256.493211 172.297986,256.609912 C171.559909,256.72495 170.834132,256.929462 170.089904,256.990177 C168.358497,257.098824 166.707048,256.287167 165.169386,255.497878 C164.918622,255.407121 164.702852,255.234486 164.554321,255.005771 C164.456392,254.756936 164.456392,254.478099 164.554321,254.229264 Z" fill="url(#linearGradient-1)"></path>
        <path d="M205.172748,149.380799 C205.22928,148.968805 205.257884,148.553164 205.258348,148.13697 C205.258824,145.230614 203.853963,142.5201 201.522526,140.929139 C201.265726,132.636945 195.85765,126 189.223661,126 C182.424587,126 176.912568,132.962254 176.912568,141.547865 C176.912568,150.133475 182.415416,157.09254 189.223661,157.09254 C189.86466,157.092257 190.50427,157.030336 191.134372,156.90756 C191.759213,160.544748 194.538755,163.360603 198.042044,163.905476 C201.545333,164.450349 204.991319,162.602763 206.605951,159.313885 C208.220584,156.025007 207.643885,152.028084 205.172748,149.380799 Z" fill="#3F3D56"></path>
        <path d="M188.538677,127.059666 C195.237735,127.059666 200.698857,133.789205 200.958176,142.215702 C203.313398,143.831816 204.732164,146.585573 204.730641,149.53788 C204.731482,149.960539 204.70259,150.382686 204.644202,150.800883 C206.169864,152.43335 207.023479,154.628979 207.021287,156.915113 C207.020071,157.277766 206.998423,157.640027 206.956457,158 C208.129221,154.805791 207.417416,151.187451 205.135054,148.741217 C205.192141,148.322872 205.221026,147.900823 205.221494,147.478214 C205.221974,144.527056 203.803334,141.77476 201.449029,140.159274 C201.18971,131.739254 195.728588,125 189.029529,125 C183.120774,125 178.175202,130.236605 176.912568,137.254367 C178.687665,131.295584 183.222649,127.059666 188.538677,127.059666 Z" fill="#000000" opacity="0.1"></path>
        <path d="M181.684197,144.243978 C181.742704,144.74025 181.689728,145.243978 181.529491,145.715006 C181.252806,146.385072 180.574481,146.983456 180.773813,147.681571 C180.901743,148.133476 181.368835,148.382802 181.779401,148.532398 C183.790576,149.246096 185.986207,148.822241 188.107462,148.918855 C188.814745,148.983716 189.524786,149.009723 190.234666,148.99677 C190.950398,148.980126 191.642821,148.727071 192.213115,148.273722 C191.10787,147.709156 190.064429,147.020508 189.101149,146.219893 C188.869257,146.039772 188.65942,145.830424 188.476375,145.596576 C188.024158,144.973259 187.955731,144.141131 187.928955,143.358868 C187.902179,142.576605 187.908129,141.800576 187.928955,141.033896 C186.409665,141.015196 184.891367,141.007924 183.37406,141.01208 C182.886142,141.01208 181.398586,140.887416 181.229005,141.439052 C181.142727,141.713311 181.469989,142.51739 181.526516,142.825932 C181.603869,143.296536 181.654446,143.770257 181.684197,144.243978 Z" fill="#FBBEBE"></path>
        <path d="M181.684197,144.243978 C181.742704,144.74025 181.689728,145.243978 181.529491,145.715006 C181.252806,146.385072 180.574481,146.983456 180.773813,147.681571 C180.901743,148.133476 181.368835,148.382802 181.779401,148.532398 C183.790576,149.246096 185.986207,148.822241 188.107462,148.918855 C188.814745,148.983716 189.524786,149.009723 190.234666,148.99677 C190.950398,148.980126 191.642821,148.727071 192.213115,148.273722 C191.10787,147.709156 190.064429,147.020508 189.101149,146.219893 C188.869257,146.039772 188.65942,145.830424 188.476375,145.596576 C188.024158,144.973259 187.955731,144.141131 187.928955,143.358868 C187.902179,142.576605 187.908129,141.800576 187.928955,141.033896 C186.409665,141.015196 184.891367,141.007924 183.37406,141.01208 C182.886142,141.01208 181.398586,140.887416 181.229005,141.439052 C181.142727,141.713311 181.469989,142.51739 181.526516,142.825932 C181.603869,143.296536 181.654446,143.770257 181.684197,144.243978 Z" fill="#000000" opacity="0.1"></path>
        <path d="M174.130341,173.811532 C173.908957,175.565441 174.113526,177.348932 174.725463,179 C177.99347,178.64517 181.276982,178.465911 184.562842,178.462943 C183.996275,177.675064 183.634561,176.749292 183.51245,175.774569 C183.430605,174.860864 183.430605,173.941256 183.51245,173.027551 L177.132735,173.005946 C176.665065,172.98458 176.196604,173.020843 175.737172,173.113974 C175.09444,173.265215 174.75522,173.691157 174.130341,173.811532 Z" fill="#FBBEBE"></path>
        <path d="M171.68998,178.286388 C171.365882,178.885881 170.974019,179.432379 170.614565,180.005375 C169.945555,181.080941 169.354389,182.215114 168.846759,183.396977 C168.210349,184.841058 167.641705,186.331508 166.869763,187.702723 C166.434429,188.370039 166.063089,189.087235 165.761938,189.842347 C165.545915,190.562555 165.437399,191.317985 165.440787,192.078023 C165.417216,193.088217 165.496768,194.171277 166.030056,194.97612 C166.5138,195.675928 167.276747,196.057526 168.063032,195.992939 C168.459904,195.967519 168.835828,195.784395 169.123715,195.476249 C169.654057,194.863509 169.601023,193.879811 169.459599,193.038535 C169.359423,192.448979 169.23273,191.829614 169.400672,191.259931 C169.504626,190.977625 169.626731,190.704205 169.766018,190.441839 C170.014108,189.803339 170.165477,189.122699 170.213862,188.428075 C170.372965,187.10323 170.540906,185.682334 171.298116,184.639019 C171.701765,184.07596 172.249785,183.665258 172.647541,183.098887 C172.856732,182.800797 173.021727,182.466274 173.23681,182.184744 C173.555015,181.780667 173.991074,181.47264 174.173747,180.975823 C174.259472,180.652001 174.314773,180.318971 174.338742,179.98219 C174.458968,179.445734 174.633964,178.926703 174.860245,178.435433 C175.579152,176.577339 175.773611,174.520517 175.956284,172.503441 C175.182336,172.469186 174.417887,172.299327 173.690547,172 C173.923308,172.049682 171.910956,177.862438 171.68998,178.286388 Z" fill="#FBBEBE"></path>
        <path d="M171.68998,178.286388 C171.365882,178.885881 170.974019,179.432379 170.614565,180.005375 C169.945555,181.080941 169.354389,182.215114 168.846759,183.396977 C168.210349,184.841058 167.641705,186.331508 166.869763,187.702723 C166.434429,188.370039 166.063089,189.087235 165.761938,189.842347 C165.545915,190.562555 165.437399,191.317985 165.440787,192.078023 C165.417216,193.088217 165.496768,194.171277 166.030056,194.97612 C166.5138,195.675928 167.276747,196.057526 168.063032,195.992939 C168.459904,195.967519 168.835828,195.784395 169.123715,195.476249 C169.654057,194.863509 169.601023,193.879811 169.459599,193.038535 C169.359423,192.448979 169.23273,191.829614 169.400672,191.259931 C169.504626,190.977625 169.626731,190.704205 169.766018,190.441839 C170.014108,189.803339 170.165477,189.122699 170.213862,188.428075 C170.372965,187.10323 170.540906,185.682334 171.298116,184.639019 C171.701765,184.07596 172.249785,183.665258 172.647541,183.098887 C172.856732,182.800797 173.021727,182.466274 173.23681,182.184744 C173.555015,181.780667 173.991074,181.47264 174.173747,180.975823 C174.259472,180.652001 174.314773,180.318971 174.338742,179.98219 C174.458968,179.445734 174.633964,178.926703 174.860245,178.435433 C175.579152,176.577339 175.773611,174.520517 175.956284,172.503441 C175.182336,172.469186 174.417887,172.299327 173.690547,172 C173.923308,172.049682 171.910956,177.862438 171.68998,178.286388 Z" fill="#000000" opacity="0.1"></path>
        <ellipse id="Oval" fill="#FBBEBE" cx="184.084699" cy="137.5" rx="5.25956284" ry="5.5"></ellipse>
        <path d="M173.95932,196.161057 C172.928795,197.452849 172.524489,199.18385 172.153621,200.837344 L170.785667,206.915225 C170.183853,209.378847 169.715949,211.877209 169.384275,214.397931 C169.22316,215.82859 169.156282,217.304463 169.606187,218.676992 C169.98126,219.685781 170.527346,220.612915 171.217333,221.412361 C172.686287,223.284042 174.482486,224.835841 176.506755,225.982075 C177.579838,226.57307 178.71372,227.025197 179.814163,227.551603 C181.458748,228.336366 183.030375,229.279375 184.602002,230.222383 L190.505483,233.774811 C191.77312,234.536968 193.052917,235.308814 194.107761,236.374542 C195.088228,237.364895 195.843043,238.579878 196.314727,239.92697 C196.395476,240.28113 196.576985,240.600255 196.834549,240.840913 C197.168938,241.086353 197.624923,241.005616 198.01403,240.879667 C200.957164,239.839496 202.884156,236.83945 202.722831,233.548747 C198.383286,231.934825 194.377504,229.446816 190.924988,226.221057 C188.289397,223.756964 185.912197,220.818137 182.695986,219.319658 C181.291553,218.673762 179.60137,218.166734 178.944752,216.690861 C178.693363,216.006311 178.576464,215.274358 178.601244,214.540028 C178.543486,212.515144 178.485728,210.467653 178.850516,208.478294 C179.154505,206.798964 179.762485,205.193913 180.20935,203.550107 C181.121319,200.259267 181.425309,196.819871 181.729298,193.403081 C179.627797,193.138365 177.513414,193.005725 175.397192,193.005855 C175.211354,192.981299 175.023819,193.034582 174.87433,193.154411 C174.780296,193.281522 174.724187,193.435601 174.713215,193.59685 C174.546021,194.475268 174.506502,195.486096 173.95932,196.161057 Z" fill="#FBBEBE"></path>
        <path d="M173.95932,196.161057 C172.928795,197.452849 172.524489,199.18385 172.153621,200.837344 L170.785667,206.915225 C170.183853,209.378847 169.715949,211.877209 169.384275,214.397931 C169.22316,215.82859 169.156282,217.304463 169.606187,218.676992 C169.98126,219.685781 170.527346,220.612915 171.217333,221.412361 C172.686287,223.284042 174.482486,224.835841 176.506755,225.982075 C177.579838,226.57307 178.71372,227.025197 179.814163,227.551603 C181.458748,228.336366 183.030375,229.279375 184.602002,230.222383 L190.505483,233.774811 C191.77312,234.536968 193.052917,235.308814 194.107761,236.374542 C195.088228,237.364895 195.843043,238.579878 196.314727,239.92697 C196.395476,240.28113 196.576985,240.600255 196.834549,240.840913 C197.168938,241.086353 197.624923,241.005616 198.01403,240.879667 C200.957164,239.839496 202.884156,236.83945 202.722831,233.548747 C198.383286,231.934825 194.377504,229.446816 190.924988,226.221057 C188.289397,223.756964 185.912197,220.818137 182.695986,219.319658 C181.291553,218.673762 179.60137,218.166734 178.944752,216.690861 C178.693363,216.006311 178.576464,215.274358 178.601244,214.540028 C178.543486,212.515144 178.485728,210.467653 178.850516,208.478294 C179.154505,206.798964 179.762485,205.193913 180.20935,203.550107 C181.121319,200.259267 181.425309,196.819871 181.729298,193.403081 C179.627797,193.138365 177.513414,193.005725 175.397192,193.005855 C175.211354,192.981299 175.023819,193.034582 174.87433,193.154411 C174.780296,193.281522 174.724187,193.435601 174.713215,193.59685 C174.546021,194.475268 174.506502,195.486096 173.95932,196.161057 Z" fill="#000000" opacity="0.1"></path>
        <path d="M205.184665,236.578291 L201.954041,242.465813 C201.703629,242.919676 201.453217,243.376713 201.246086,243.852793 C200.896746,244.662129 200.674158,245.522246 200.278445,246.309365 C199.813256,247.148729 199.252883,247.928583 198.609031,248.632635 L196.500624,251.127294 C196.278808,251.426387 196.00271,251.678585 195.687558,251.869979 C195.363069,252.059189 194.961658,252.040681 194.654995,251.822371 C194.540502,251.714772 194.448929,251.58402 194.386034,251.438333 C194.22166,251.084402 194.147213,250.693517 194.169629,250.302089 C194.19849,249.65844 194.474092,249.052621 194.936322,248.616766 C195.226924,248.356509 195.600996,248.140686 195.724656,247.76617 C195.778613,247.559316 195.791232,247.34339 195.761754,247.131397 C195.61027,245.274685 195.452604,243.402104 194.923956,241.624739 C194.525152,240.294889 193.906851,238.926952 194.203635,237.568537 C194.766289,237.393975 195.498976,237.273368 195.83595,237.768491 C196.49135,238.720651 196.531539,238.371525 197.542462,238.225528 C198.553384,238.07953 199.502477,238.016052 200.241347,237.203543 C201.224446,236.130776 201.140975,234.46767 200.995674,233.004517 C202.031329,232.953736 203.017519,233.337773 203.954246,233.820201 C204.285037,233.99159 204.606553,234.1725 204.924979,234.353411 C205.100835,234.438376 205.260087,234.555619 205.394888,234.699362 C205.818424,235.213528 205.509273,235.991126 205.184665,236.578291 Z" fill="#3F3D56"></path>
        <path d="M174.085,190.932592 C173.74014,192.064619 173.470261,193.218598 173.277153,194.386871 C173.182292,195.030103 173.136392,195.679519 173.087432,196.325844 C175.26311,196.848469 177.521408,196.873209 179.758287,196.897949 L189.082184,197 C189.287285,195.73077 189.372329,194.444687 189.336167,193.159164 C189.204585,191.047013 188.418159,188.984342 188.54974,186.872191 C185.991084,186.411809 183.404573,186.126653 180.807876,186.018672 C180.335393,185.970161 179.858083,186.016402 179.403324,186.154741 C178.981041,186.309364 178.629138,186.615517 178.222154,186.810342 C177.304147,187.249472 175.939375,187.032999 175.162129,187.73808 C174.455263,188.396775 174.335922,190.029594 174.085,190.932592 Z" fill="#3F3D56"></path>
        <path d="M174.085,190.932592 C173.74014,192.064619 173.470261,193.218598 173.277153,194.386871 C173.182292,195.030103 173.136392,195.679519 173.087432,196.325844 C175.26311,196.848469 177.521408,196.873209 179.758287,196.897949 L189.082184,197 C189.287285,195.73077 189.372329,194.444687 189.336167,193.159164 C189.204585,191.047013 188.418159,188.984342 188.54974,186.872191 C185.991084,186.411809 183.404573,186.126653 180.807876,186.018672 C180.335393,185.970161 179.858083,186.016402 179.403324,186.154741 C178.981041,186.309364 178.629138,186.615517 178.222154,186.810342 C177.304147,187.249472 175.939375,187.032999 175.162129,187.73808 C174.455263,188.396775 174.335922,190.029594 174.085,190.932592 Z" fill="#000000" opacity="0.1"></path>
        <path d="M174.516785,195.792871 C173.832885,199.250157 174.55544,202.825449 174.724928,206.356091 C174.843867,208.882078 174.677352,211.414444 174.608962,213.943621 C174.569602,214.670142 174.600493,215.399082 174.70114,216.118777 C174.828503,216.756621 175.008616,217.381021 175.23934,217.984563 L176.062993,220.30643 C176.827177,222.494343 177.606229,224.838536 176.827177,227.118941 C176.619397,227.706407 176.57802,228.346614 176.708238,228.959213 C177.873842,234.186603 176.824204,239.736121 176.657689,245.107033 C176.672082,245.635696 176.586091,246.161977 176.404944,246.653882 C175.988657,247.610695 174.962806,248.057208 174.424607,248.927908 C173.770441,249.983592 174.005346,251.47941 174.775477,252.436224 C175.545608,253.393037 176.74392,253.868255 177.921418,253.973504 C179.39329,254.104269 180.868135,253.721543 182.313245,253.469582 L182.473813,253.303735 C182.655196,252.228914 182.105102,251.233828 181.93264,250.133493 C181.851307,249.481296 181.814536,248.823595 181.822622,248.165647 C181.822622,247.578801 181.792887,246.988766 181.822622,246.401921 C181.871306,245.805687 181.94972,245.212677 182.057526,244.625437 L183.288546,237.315383 L183.553186,235.73983 L184.656347,229.17609 C184.86449,227.935422 184.358999,226.548043 184.222219,225.297807 C183.945685,222.704842 183.669152,220.099121 183.749436,217.493399 C183.758687,216.777471 183.837413,216.064521 183.98434,215.366084 C184.141542,214.719309 184.23424,214.056451 184.260874,213.388669 C184.278715,212.584946 184.579036,211.79398 184.873411,211.003015 C185.851685,208.352641 185.81303,205.421603 186.024147,202.579867 C186.046575,201.977935 186.146642,201.382237 186.321495,200.809763 C186.618843,199.942252 187.237326,199.246967 187.71903,198.478327 C188.200733,197.709687 188.566471,196.749684 188.295884,195.869416 C187.858783,194.4629 186.080643,194.013198 184.998297,193.601768 C183.147776,192.877726 181.130279,192.805109 179.238669,193.394459 C177.573068,193.967303 175.985359,194.773757 174.516785,195.792871 Z" fill="#FBBEBE"></path>
        <path d="M182.213708,256.297128 C182.148765,256.433032 182.047054,256.547146 181.920581,256.625998 C181.773831,256.686428 181.614993,256.710011 181.457442,256.694762 L174.369644,256.539296 C173.496919,256.495773 172.622142,256.528782 171.754956,256.637957 C171.066109,256.742597 170.391918,256.936929 169.703071,256.990745 C168.090876,257.092395 166.557824,256.338984 165.10978,255.603511 C164.879805,255.514976 164.682928,255.354961 164.546977,255.146083 C164.45884,254.919481 164.45884,254.66711 164.546977,254.440508 C164.672514,253.971052 164.950503,253.558928 165.335487,253.271525 C165.381566,253.237823 165.429524,253.206877 165.479119,253.178843 C165.876618,252.986434 166.30634,252.872802 166.745425,252.843994 C168.392796,252.622754 170.125173,252.293884 171.373892,251.175727 C171.734437,250.855826 172.039289,250.479121 172.373453,250.129323 C173.077627,249.431077 173.838573,248.794977 174.648114,248.227857 C174.805082,248.073916 175.016778,247.991867 175.234367,248.000637 C175.357023,248.035134 175.469015,248.100994 175.559737,248.19198 C175.899971,248.436806 176.166861,248.773191 176.33066,249.163641 C176.478559,249.571783 176.317905,250.029324 175.949596,250.248912 C175.656469,250.365511 175.363343,250.305716 175.122979,250.467162 C175.633019,250.843867 176.421529,251.03222 176.996057,251.423874 C177.563868,251.86831 178.20106,252.211959 178.88086,252.440381 C179.572639,252.622754 180.396324,252.497186 180.847739,251.932128 C181.091034,251.633155 181.398816,251.163768 181.727118,251.36408 C181.839798,251.449083 181.921323,251.570125 181.958688,251.707898 C182.301789,252.52678 182.527849,253.391661 182.629947,254.276073 C182.707566,254.977867 182.561622,255.686504 182.213708,256.297128 Z" fill="#3F3D56"></path>
        <path d="M180.897001,175.001102 C180.483453,174.991691 180.070579,175.04258 179.668924,175.152469 C179.285796,175.291423 178.91839,175.479134 178.574012,175.711868 L174.653043,178.127156 C174.365164,178.286981 174.097511,178.488348 173.857012,178.726042 C173.291801,179.328219 173.129043,180.259454 173.096492,181.131458 C172.963327,184.520759 174.339365,187.771855 174.513959,191.161156 C174.590152,192.673016 174.425863,194.187968 174.028647,195.636348 C173.930992,195.995022 173.833338,196.43267 174.070076,196.702497 C174.156153,196.7892 174.256693,196.856279 174.365998,196.899932 C175.605912,197.436297 176.958276,197.558049 178.284008,197.666638 C181.539152,197.943047 184.812051,198.219456 188.04944,197.73574 C188.210909,197.725061 188.368389,197.675669 188.511079,197.590955 C188.695875,197.428587 188.83291,197.20861 188.904655,196.959163 C189.313028,195.895208 189.707591,194.829059 190.088344,193.760716 C190.748251,191.964058 191.39632,190.075263 191.230604,188.143691 C191.023458,185.748146 189.60895,183.724438 188.783327,181.496713 C188.534753,180.838597 188.339444,180.140993 188.040563,179.50591 C187.706407,178.855299 187.332675,178.230828 186.921977,177.636859 C186.60534,177.1334 186.30054,175.991568 185.912882,175.662509 C185.439406,175.231443 184.101838,175.241315 183.501116,175.162341 C182.637055,175.04694 181.767242,174.993084 180.897001,175.001102 Z" fill="#3F3D56"></path>
        <path d="M205.183207,236.744129 L201.94127,242.56834 C201.689981,243.017322 201.438692,243.469444 201.230836,243.940404 C200.880272,244.741037 200.656905,245.591905 200.259806,246.37056 C199.792988,247.200898 199.230653,247.972365 198.584547,248.668847 L196.468756,251.136679 C196.246163,251.432555 195.969099,251.682041 195.652843,251.871377 C195.327217,252.058552 194.924401,252.040243 194.616664,251.824281 C194.50177,251.71784 194.409877,251.588493 194.346761,251.444373 C194.181811,251.094248 194.107104,250.707566 194.129598,250.320348 C194.900181,249.939651 195.596051,249.420498 196.183342,248.788157 C196.644402,248.22637 197.045779,247.617047 197.380842,246.970249 C197.670393,246.45324 197.960978,245.92995 198.252597,245.400381 C199.74999,242.733699 201.24945,240.067017 202.750979,237.400334 C203.370986,236.359424 203.778199,235.203133 203.948479,234 C204.280428,234.169546 204.603071,234.348511 204.922611,234.527476 C205.099083,234.611527 205.258893,234.727509 205.394165,234.869707 C205.819185,235.394043 205.508952,236.163278 205.183207,236.744129 Z" fill="#000000" opacity="0.1"></path>
        <path d="M182.212368,256.245942 C182.14743,256.391742 182.045726,256.514167 181.919263,256.598761 C181.772524,256.663592 181.613698,256.688892 181.456158,256.672533 L174.368897,256.505745 C173.496238,256.459053 172.621527,256.494465 171.754406,256.611591 C171.065611,256.723852 170.391471,256.932336 169.702676,256.99007 C168.090603,257.099124 166.557667,256.290846 165.109732,255.501813 C164.879775,255.40683 164.682913,255.235162 164.546972,255.011072 C164.458842,254.767968 164.458842,254.497218 164.546972,254.254114 C164.6725,253.75047 164.950468,253.308333 165.335422,253 C165.438009,253.070564 165.534733,253.147543 165.628527,253.221314 C166.58633,254.001573 167.68568,254.548402 168.852674,254.82504 C169.999361,255.050182 171.164518,255.142639 172.328891,255.100881 C175.004933,255.100881 177.701492,255.120126 180.345293,254.594104 C180.878743,254.488258 181.960298,253.952613 182.631507,254.090534 C182.705674,254.839546 182.558794,255.594871 182.212368,256.245942 Z" fill="#000000" opacity="0.1"></path>
        <path d="M191.197775,147.096459 C188.492747,147.576485 185.757293,147.846628 183.01393,147.904663 C182.337605,147.904663 181.51922,147.833825 181.219661,147.202717 C181.08069,146.906483 181.089954,146.539411 180.892307,146.278596 C180.524806,145.792386 179.786716,146.033881 179.255538,146.314015 C178.514359,146.706847 177.73921,147.131879 177.297592,147.866024 C177.006078,148.433471 176.818609,149.052622 176.744796,149.691727 C176.485384,151.05376 176.093177,152.476972 175.101851,153.404313 C174.589202,153.884083 173.943759,154.196417 173.449641,154.692287 C172.649786,155.503711 172.337873,156.720846 172.337873,157.883243 C172.337873,159.04564 172.603462,160.188717 172.804198,161.335014 C173.536742,165.563568 173.325397,169.91122 172.186549,174.040879 C172.132665,174.187511 172.117728,174.346586 172.143314,174.50133 C172.22052,174.797564 172.566403,174.903822 172.859786,174.952121 C177.390239,175.731345 182.254222,174.99398 186.42335,177 C186.772322,176.104858 187.630854,175.599328 188.057031,174.746045 C188.399826,174.053759 188.365855,173.229456 188.443062,172.453451 C188.693209,170.357273 189.987183,168.570209 190.703656,166.596389 C191.342922,164.867283 191.565275,162.964301 192.457778,161.360773 C192.766602,160.794065 193.171162,160.275655 193.483075,159.702507 C193.769107,159.136505 194.013772,158.548809 194.214988,157.944422 C194.637628,156.911156 194.922341,155.82233 195.061167,154.708387 C195.240285,152.454432 194.236606,150.300295 193.05072,148.419853 C192.590572,147.698587 192.028512,146.951562 191.197775,147.096459 Z" fill="#FF6F61"></path>
        <path d="M177.868852,155 C177.266653,155.122856 176.915369,155.684007 176.635777,156.192031 C176.447377,156.510828 176.289069,156.84411 176.162619,157.188157 C175.996705,157.769315 175.930181,158.370976 175.965471,158.971223 C175.952404,159.352334 175.995823,159.733305 176.094514,160.103486 C176.20024,160.476556 176.456964,160.797599 176.811418,161" stroke="#000000" opacity="0.1"></path>
        <ellipse id="Oval" fill="#3F3D56" transform="translate(186.025404, 133.653380) rotate(-75.660000) translate(-186.025404, -133.653380) " cx="186.025404" cy="133.65338" rx="3.17547165" ry="6.16638856"></ellipse>
        <path d="M185.11425,135.332071 C182.317478,134.502885 180.250553,132.661755 180.101664,131 C179.974254,131.189829 179.880943,131.407329 179.827242,131.639657 C179.430205,133.440174 181.657697,135.653591 184.790198,136.587694 C187.922699,137.521797 190.807052,136.814451 191.212847,135.013934 C191.255274,134.813675 191.26713,134.606352 191.24788,134.401352 C190.383741,135.714511 187.852634,136.144334 185.11425,135.332071 Z" fill="#000000" opacity="0.1"></path>
        <path d="M188.439563,157.141678 C188.581486,155.526004 189.079744,153.973336 189.890759,152.619477 C190.210141,152.029726 190.664631,151.543332 191.208445,151.209294 C191.766409,150.883139 192.444713,150.941812 192.94988,151.359927 C193.257823,151.718532 193.474146,152.160893 193.576796,152.641912 C194.30613,154.711613 194.620997,156.931151 194.499757,159.147984 C194.499757,161.16711 194.473636,163.211875 194.012155,165.166902 C193.748038,166.275818 193.344605,167.343071 193.141438,168.468012 C192.93827,169.592954 192.964392,170.826864 193.512944,171.801172 C193.953205,172.556453 194.282351,173.383971 194.488147,174.252968 C194.674918,175.297171 194.734461,176.364256 194.665193,177.42588 L194.589731,180.3456 C194.493952,184.153094 194.398173,187.999048 195.088943,191.729623 C195.402401,193.434663 196.191851,195.043553 196.011903,196.771027 C195.923511,197.395249 195.761538,198.004016 195.530106,198.581831 C195.239867,199.415121 194.877068,200.315715 194.154372,200.71954 C193.803335,200.895543 193.422477,200.987302 193.036952,200.988757 C192.558171,201.016091 192.078123,200.993557 191.60317,200.921453 C191.312931,200.876583 190.938522,200.661851 191.037204,200.354174 C191.082874,200.251841 191.153162,200.165356 191.240371,200.104187 C191.991791,199.437477 192.430197,198.431567 192.433254,197.36715 C192.433254,195.854408 191.539317,194.402561 191.815045,192.921869 C191.986286,192.00525 192.601593,191.117475 192.34328,190.226496 C191.762802,188.21378 191.687339,186.060046 191.182323,184.008871 L190.694721,182.008975 C190.404482,180.816729 190.114243,179.627688 189.879149,178.422623 C189.219898,175.090097 188.956468,171.676958 189.095503,168.269305 C189.11582,167.737281 188.8488,167.131543 188.805264,166.602725 C188.758826,165.961732 188.805264,165.34638 188.805264,164.721412 C188.805264,162.138213 188.213176,159.712057 188.439563,157.141678 Z" fill="#FBBEBE"></path>
        <path d="M95.6284153,43.7917414 C93.8834371,43.4640245 92.0793815,43.6589171 90.4468692,44.351505 C88.464525,45.2214633 86.2020267,45.2159026 84.2240702,44.3362109 C81.8820441,43.3202909 79.2078973,43.3717175 76.9074923,44.4769165 C76.2584326,44.8181416 75.535167,44.9976715 74.8002684,44.9999743 C71.8340881,44.9999743 69.365361,42.0420978 68.852459,38.1390467 C69.4445972,37.7096128 69.9480529,37.1717431 70.3355491,36.5545792 C72.0750903,33.7802318 74.7693707,32 77.7942566,32 C80.8191425,32 83.4794354,33.7588201 85.2097072,36.5056382 C86.2657999,38.1908297 88.134774,39.2070175 90.1378921,39.1851623 L90.2151363,39.1851623 C92.5726317,39.1851623 94.6180602,41.0571586 95.6284153,43.7917414 Z" fill="#EB4242" opacity="0.1"></path>
        <path d="M105.867853,30.9037337 L101.168906,34.0514997 L104.020973,28.5740672 C103.211991,27.8943555 102.211899,27.5177588 101.177989,27.5035072 L101.102298,27.5035072 C100.775905,27.509603 100.449646,27.4850054 100.127387,27.4300061 L98.5408873,28.4941747 L99.2251411,27.1839371 C98.0959147,26.7679051 97.1207146,25.9847255 96.4396831,24.946946 L93.5876164,26.8643669 L95.3890811,23.4098135 C93.720834,21.2974548 91.4743016,20 89.0037215,20 C86.0396309,20 83.3995012,21.863094 81.6949221,24.7615953 C80.6686201,26.5335713 78.8170533,27.5840211 76.8506474,27.5098986 L76.6901808,27.5098986 C73.4172677,27.5098986 70.7650273,31.4278287 70.7650273,36.2565337 C70.7650273,41.0852388 73.4112124,44.9999732 76.6962361,44.9999732 C77.415991,44.9975314 78.1244777,44.811128 78.7611082,44.4567039 C81.0144404,43.2993 83.6355659,43.2443888 85.9306347,44.3065059 C87.8688375,45.2255644 90.0858632,45.2313739 92.0283655,44.3224844 C94.3058346,43.2809749 96.8993506,43.3334388 99.1373386,44.466291 C99.7672069,44.8142244 100.467082,44.9972595 101.177989,44.9999732 C104.450902,44.9999732 107.103143,41.0852388 107.103143,36.253338 C107.123256,34.3889718 106.698442,32.5492533 105.867853,30.9037337 Z" fill="#EB4242" opacity="0.1"></path>
        <path d="M262.021858,214.264706 L262.021858,216.735294 C262.021858,221.85205 266.089216,226 271.106557,226 C276.123898,226 280.191257,221.85205 280.191257,216.735294 L280.191257,214.264706 C280.191257,209.14795 276.123898,205 271.106557,205 C266.089216,205 262.021858,209.14795 262.021858,214.264706 Z" fill="#3F3D56"></path>
        <path d="M280.191257,173.740481 L280.191257,171.268801 C280.191257,166.149784 276.123899,162 271.106559,162 C266.089218,162 262.02186,166.149784 262.02186,171.268801 L262.02186,173.740481 C262.021189,174.648197 262.152844,175.550968 262.412502,176.419165 C263.718176,180.813905 267.981054,183.570651 272.433753,182.899773 C276.886452,182.228896 280.186369,178.332681 280.191257,173.740481 Z" fill="#3F3D56"></path>
        <path d="M262.021858,192.264706 L262.021858,194.735294 C262.021858,199.85205 266.089216,204 271.106557,204 C276.123898,204 280.191257,199.85205 280.191257,194.735294 L280.191257,192.264706 C280.191257,187.14795 276.123898,183 271.106557,183 C266.089216,183 262.021858,187.14795 262.021858,192.264706 Z" fill="#3F3D56"></path>
        <path d="M271.106557,226 C266.095429,226.015263 262.036824,230.154285 262.021858,235.264706 L262.021858,237.735294 C262.021858,242.85205 266.089216,247 271.106557,247 C276.123898,247 280.191257,242.85205 280.191257,237.735294 L280.191257,235.264706 C280.176291,230.154285 276.117686,226.015263 271.106557,226 Z" fill="#3F3D56"></path>
        <path d="M280.191257,171 L280.191257,173.332261 C280.186524,178.126915 276.991596,182.1949 272.680562,182.895355 C268.369528,183.595809 264.242275,180.717527 262.978142,176.129038 L280.191257,171 Z" fill="#000000" opacity="0.1"></path>
        <path d="M280.191257,193 L280.191257,195.332261 C280.186524,200.126915 276.991596,204.1949 272.680562,204.895355 C268.369528,205.595809 264.242275,202.717527 262.978142,198.129038 L280.191257,193 Z" fill="#000000" opacity="0.1"></path>
        <path d="M280.191257,214 L280.191257,216.332261 C280.186524,221.126915 276.991596,225.1949 272.680562,225.895355 C268.369528,226.595809 264.242275,223.717527 262.978142,219.129038 L280.191257,214 Z" fill="#000000" opacity="0.1"></path>
        <path d="M280.191257,237 L280.191257,239.332261 C280.186524,244.126915 276.991596,248.1949 272.680562,248.895355 C268.369528,249.595809 264.242275,246.717527 262.978142,242.129038 L280.191257,237 Z" fill="#000000" opacity="0.1"></path>
        <path d="M299.878126,194.621658 L299.149546,195.225023 C297.793201,196.350138 295.870413,196.239053 294.635203,194.964216 C293.399994,193.689379 293.227126,191.637577 294.229343,190.146974 C294.424908,189.852746 294.660164,189.591162 294.927439,189.370753 L295.659068,188.767388 C296.639264,187.961072 297.947077,187.775467 299.089866,188.28049 C300.232655,188.785514 301.036803,189.904439 301.199395,191.215779 C301.361987,192.527119 300.858323,193.831649 299.878126,194.637965 L299.878126,194.621658 Z" fill="#3F3D56"></path>
        <path d="M289.884533,194.722672 L289.1412,195.335102 C287.659002,196.620127 287.408445,198.928082 288.576248,200.539037 C289.744051,202.149992 291.905037,202.477425 293.4488,201.277328 L294.192133,200.664898 C295.674331,199.379873 295.924889,197.071918 294.757086,195.460963 C293.589283,193.850008 291.428296,193.522575 289.884533,194.722672 Z" fill="#3F3D56"></path>
        <path d="M283.22645,199.767654 L282.49807,200.367188 C280.983233,201.613363 280.700107,203.936514 281.865689,205.556091 C283.031272,207.175669 285.204181,207.478371 286.719017,206.232196 L287.447398,205.632662 C288.427325,204.826528 288.930561,203.522698 288.767542,202.212311 C288.604523,200.901924 287.800015,199.78406 286.657068,199.279807 C285.514122,198.775554 284.206377,198.96152 283.22645,199.767654 Z" fill="#3F3D56"></path>
        <path d="M276.528462,204.783693 L275.799574,205.386177 C274.287891,206.630814 274.007299,208.948399 275.172852,210.56265 C276.338405,212.1769 278.508734,212.476532 280.020416,211.231895 L280.752354,210.629412 C282.268248,209.383876 282.551571,207.061916 281.385176,205.443169 C280.21878,203.824421 278.044355,203.521874 276.528462,204.76741 L276.528462,204.783693 Z" fill="#3F3D56"></path>
        <path d="M299.31694,194.647227 L298.710387,195.205563 C297.460976,196.35893 295.689778,196.245056 294.551952,194.938207 C293.414125,193.631358 293.254886,191.528034 294.178089,190 L299.31694,194.647227 Z" fill="#000000" opacity="0.1"></path>
        <path d="M293.579235,200.649709 L292.972203,201.208745 C291.72209,202.359009 289.952984,202.243653 288.815752,200.93772 C287.67852,199.631787 287.517025,197.53015 288.436325,196 L293.579235,200.649709 Z" fill="#000000" opacity="0.1"></path>
        <path d="M285.928962,205.645196 L285.322598,206.203689 C284.074187,207.35851 282.303349,207.246009 281.165115,205.939566 C280.026882,204.633123 279.866638,202.529164 280.788903,201 L285.928962,205.645196 Z" fill="#000000" opacity="0.1"></path>
        <path d="M296.593873,76.0782609 C302.321226,76.0782609 306.964163,80.9427844 306.964163,86.9434783 C306.964163,92.9441721 302.321226,97.8086957 296.593873,97.8086957 C302.321226,97.8086957 306.964163,102.673219 306.964163,108.673913 C306.964163,114.674607 302.321226,119.53913 296.593873,119.53913 C302.321226,119.53913 306.964163,124.403654 306.964163,130.404348 C306.964163,136.405042 302.321226,141.269565 296.593873,141.269565 C302.321226,141.269565 306.964163,146.134089 306.964163,152.134783 C306.964163,158.135476 302.321226,163 296.593873,163 L246.572476,163 C240.845123,163 236.202186,158.135476 236.202186,152.134783 C236.202186,146.134089 240.845123,141.269565 246.572476,141.269565 C240.845123,141.269565 236.202186,136.405042 236.202186,130.404348 C236.202186,124.403654 240.845123,119.53913 246.572476,119.53913 C240.845123,119.53913 236.202186,114.674607 236.202186,108.673913 C236.202186,102.673219 240.845123,97.8086957 246.572476,97.8086957 C240.845123,97.8086957 236.202186,92.9441721 236.202186,86.9434783 C236.202186,80.9427844 240.845123,76.0782609 246.572476,76.0782609 C240.845123,76.0782609 236.202186,71.2137373 236.202186,65.2130435 C236.202186,59.2123496 240.845123,54.3478261 246.572476,54.3478261 C240.845123,54.3478261 236.202186,49.4833026 236.202186,43.4826087 C236.202186,37.4819148 240.845123,32.6173913 246.572476,32.6173913 L248.860039,32.6173913 C250.174626,23.2701087 260.255158,16 272.50125,16 C284.747342,16 294.827874,23.2701087 296.142461,32.6173913 L296.596923,32.6173913 C302.324276,32.6173913 306.967213,37.4819148 306.967213,43.4826087 C306.967213,49.4833026 302.324276,54.3478261 296.596923,54.3478261 C302.324276,54.3478261 306.967213,59.2123496 306.967213,65.2130435 C306.967213,71.2137373 302.324276,76.0782609 296.596923,76.0782609 L296.593873,76.0782609 Z" fill="#EB4242"></path>
        <path d="M306.967213,43.5 C306.950503,49.2919501 302.328548,53.9830396 296.621957,54 L246.721311,54 L296.317685,33 L296.621957,33 C302.328548,33.0169604 306.950503,37.7080499 306.967213,43.5 Z" fill="#000000" opacity="0.1"></path>
        <path d="M237.15847,64.5 C237.17518,70.2919501 241.797135,74.9830396 247.503726,75 L297.404372,75 L247.807998,54 L247.503726,54 C241.797135,54.0169604 237.17518,58.7080499 237.15847,64.5 Z" fill="#000000" opacity="0.1"></path>
        <path d="M237.15847,108.5 C237.17518,114.29195 241.797135,118.98304 247.503726,119 L297.404372,119 L247.807998,98 L247.503726,98 C241.797135,98.0169604 237.17518,102.70805 237.15847,108.5 Z" fill="#000000" opacity="0.1"></path>
        <path d="M237.15847,151.5 C237.17518,157.29195 241.797135,161.98304 247.503726,162 L297.404372,162 L247.807998,141 L247.503726,141 C241.797135,141.01696 237.17518,145.70805 237.15847,151.5 Z" fill="#000000" opacity="0.1"></path>
        <path d="M306.967213,86.5 C306.950503,92.2919501 302.328548,96.9830396 296.621957,97 L246.721311,97 L296.317685,76 L296.621957,76 C302.328548,76.0169604 306.950503,80.7080499 306.967213,86.5 Z" fill="#000000" opacity="0.1"></path>
        <path d="M306.967213,130.5 C306.950503,136.29195 302.328548,140.98304 296.621957,141 L246.721311,141 L296.317685,120 L296.621957,120 C302.328548,120.01696 306.950503,124.70805 306.967213,130.5 Z" fill="#000000" opacity="0.1"></path>
        <path d="M301.014467,206.547247 L284.08022,196.943809 C282.228318,195.804493 281.564146,193.325787 282.577214,191.334558 C283.590283,189.343329 285.917383,188.55348 287.843386,189.547147 C286.549464,188.858079 285.712344,187.483674 285.656979,185.957446 C285.601614,184.431219 286.336722,182.993522 287.57695,182.202437 C288.817179,181.411352 290.367214,181.391461 291.625368,182.150485 L292.396817,182.586554 C294.469694,179.659603 299.145428,179.11782 303.294319,181.469952 C307.44321,183.822084 309.588214,188.232332 308.405953,191.664727 L308.559615,191.753923 C309.869716,192.429833 310.724642,193.805692 310.788513,195.340956 C310.852383,196.87622 310.114992,198.325593 308.866045,199.119647 C307.617099,199.913701 306.056145,199.925568 304.796449,199.150585 C306.673119,200.28275 307.351569,202.784062 306.326016,204.789801 C305.300463,206.795539 302.94449,207.575066 301.014467,206.547247 Z" fill="#EB4242"></path>
        <path d="M310.31583,196.816121 C309.261447,198.832588 306.833611,199.588004 304.881859,198.506888 L287.84153,189 L308.583397,191.125723 L308.687532,191.184589 C310.632092,192.278454 311.359513,194.79427 310.31583,196.816121 Z" fill="#000000" opacity="0.1"></path>
        <path d="M283.514725,192.141857 C282.52219,194.124266 283.208422,196.593116 285.051624,197.67114 L301.229508,207 L288.772537,190.540515 L288.673672,190.482751 C286.820526,189.423768 284.51686,190.164621 283.514725,192.141857 Z" fill="#000000" opacity="0.1"></path>
        <path d="M104.697879,247.974046 L79.864963,248 C77.0213107,248 74.7160751,245.571386 74.7160751,242.57554 C74.7160751,239.579693 77.0213107,237.151079 79.864963,237.151079 C77.9959764,237.199244 76.2490598,236.17632 75.3011193,234.478677 C74.3531788,232.781034 74.3531788,230.675448 75.3011193,228.977805 C76.2490598,227.280162 77.9959764,226.257238 79.864963,226.305403 L81.0012906,226.305403 C81.6479811,221.640107 86.6490544,218.006497 92.7279452,218.000009 C98.806836,217.99352 103.814068,221.617397 104.473077,226.282693 L104.697879,226.282693 C106.566865,226.234528 108.313782,227.257452 109.261722,228.955095 C110.209663,230.652738 110.209663,232.758324 109.261722,234.455967 C108.313782,236.15361 106.566865,237.176534 104.697879,237.128369 C107.541531,237.128369 109.846767,239.556983 109.846767,242.55283 C109.846767,245.548676 107.541531,247.97729 104.697879,247.97729 L104.697879,247.974046 Z" fill="#EB4242"></path>
        <path d="M109.972678,230.983587 C109.967669,233.735363 107.695003,235.96628 104.886708,235.976127 L80.3278689,236 L104.725297,226 L104.874526,226 C107.683333,226.0049 109.960958,228.231342 109.972678,230.983587 Z" fill="#000000" opacity="0.1"></path>
        <path d="M75.5464481,243.005981 C75.5581559,245.762823 77.8332311,247.993448 80.6399846,248 L105.191257,247.976077 L80.780034,238 L80.6308509,238 C77.822235,238.009874 75.5497817,240.247277 75.5464481,243.005981 Z" fill="#000000" opacity="0.1"></path>
        <path d="M191.256831,72.1529412 C190.072568,71.9275648 188.848717,72.0623332 187.740366,72.5401681 C186.396696,73.1470328 184.860684,73.1470328 183.517014,72.5401681 C181.92733,71.8370128 180.112468,71.8723902 178.550832,72.6369748 C178.11064,72.8728555 177.620384,72.9974223 177.122081,73 C175.109249,73 173.434885,70.9519328 173.087432,68.247395 C173.489409,67.9510007 173.831104,67.5791872 174.093847,67.1522689 C175.27399,65.2312605 177.089132,64 179.152884,64 C181.216635,64 183.013806,65.210084 184.193949,67.1189916 C184.911689,68.2836757 186.178463,68.9864455 187.536687,68.9734454 L187.590602,68.9734454 C189.178103,68.9643697 190.56492,70.2621849 191.256831,72.1529412 Z" fill="#EB4242" opacity="0.1"></path>
        <path d="M198.024533,62.4192547 L194.68606,64.5590062 L196.711892,60.8322981 C196.138416,60.3676594 195.427288,60.1106928 194.692208,60.1024845 L194.639949,60.1024845 C194.408358,60.1078979 194.176778,60.0912613 193.948276,60.052795 L192.813933,60.7763975 L193.299641,59.8850932 C192.498029,59.6018822 191.805259,59.0704619 191.31992,58.3664596 L189.28794,59.6677019 L190.566766,57.3167702 C189.383237,55.8819876 187.800076,55 186.029394,55 C183.923635,55 182.033063,56.2639752 180.834164,58.2360248 C180.102563,59.4336432 178.792731,60.1444304 177.400394,60.0993789 L177.298949,60.0993789 C174.974929,60.0993789 173.087432,62.7639752 173.087432,66.0496894 C173.087432,69.3354037 174.974929,72 177.298949,72 C177.810552,71.9988545 178.314059,71.8708885 178.765295,71.6273292 C180.368023,70.8424296 182.230639,70.8061122 183.862153,71.5279503 C184.548076,71.8372987 185.290523,71.9980999 186.04169,72 C186.783075,71.9990592 187.516066,71.8414387 188.19356,71.5372671 C189.811825,70.8292884 191.654557,70.8655461 193.244307,71.636646 C193.692069,71.8737081 194.18976,71.9983402 194.695283,72 C197.022376,72 198.9068,69.3354037 198.9068,66.0496894 C198.918089,64.7840228 198.614731,63.5357381 198.024533,62.4192547 Z" fill="#EB4242" opacity="0.1"></path>
        <path d="M126.229508,91.1575801 C127.414357,90.9322427 128.638814,91.0669877 129.747713,91.54474 C131.090949,92.1517533 132.626921,92.1517533 133.970158,91.54474 C135.557193,90.8425971 137.369026,90.875746 138.929807,91.6354806 C139.370346,91.8709819 139.86076,91.995506 140.359265,91.998443 C142.373093,91.998443 144.051282,89.9507301 144.398907,87.2466601 C143.995974,86.9511784 143.65396,86.5792664 143.391993,86.1517236 C142.211267,84.2310475 140.380242,83 138.327457,83 C136.274672,83 134.467621,84.2098747 133.286895,86.118452 C132.567515,87.2827029 131.298869,87.9842652 129.939506,87.9695603 L129.888561,87.9695603 C128.294281,87.9695603 126.903781,89.2671509 126.229508,91.1575801 Z" fill="#EB4242" opacity="0.1"></path>
        <path d="M118.499612,82.4068323 L121.838053,84.5465839 L119.809166,80.8198758 C120.382871,80.3556608 121.093843,80.0987482 121.828831,80.0900621 L121.884164,80.0900621 C122.115752,80.0954756 122.34733,80.078839 122.57583,80.0403727 L123.707088,80.7639752 L123.221385,79.8726708 C124.023918,79.5896534 124.71772,79.0582615 125.204161,78.3540373 L127.229973,79.6521739 L125.95116,77.3167702 C127.137751,75.8819876 128.733194,75 130.491562,75 C132.597301,75 134.487855,76.2639752 135.686742,78.2360248 C136.417883,79.4341293 137.728005,80.1450806 139.120479,80.0993789 L139.231146,80.0993789 C141.558218,80.0993789 143.442623,82.7639752 143.442623,86.0496894 C143.442623,89.3354037 141.558218,92 139.231146,92 C138.719642,91.9980995 138.216317,91.8701786 137.764814,91.6273292 C136.162101,90.8424296 134.299503,90.8061122 132.668005,91.5279503 C131.983177,91.837314 131.241735,91.9981259 130.491562,92 C129.750117,91.9997033 129.017003,91.8420547 128.339713,91.5372671 C126.720423,90.8291664 124.876728,90.8654214 123.28594,91.636646 C122.838313,91.8740535 122.340541,91.9987069 121.834979,92 C119.510981,92 117.623502,89.3354037 117.623502,86.0496894 C117.608257,84.7803625 117.909552,83.5275823 118.499612,82.4068323 Z" fill="#EB4242" opacity="0.1"></path>
    </g>
</svg>
